<?xml version="1.0" encoding="UTF-8"?>
<svg version="1.1" xmlns="http://www.w3.org/2000/svg" width="254" height="254">
<path d="M0 0 C4.44943017 3.12406799 7.7038298 6.89833726 11.2109375 11.0234375 C13.3986909 13.4404751 15.80290668 15.43824625 18.31640625 17.50390625 C20.63092116 19.56065616 22.50621391 21.90143171 24.47265625 24.28515625 C26.0214484 26.02408146 27.63991412 27.46019669 29.4375 28.9375 C32.76672362 31.68136562 35.45031804 34.75558067 38.2265625 38.046875 C40.47568343 40.52388043 42.96087458 42.55313309 45.6171875 44.578125 C47.29666933 46.30504982 47.60911625 47.65469748 48 50 C48.66 50 49.32 50 50 50 C50.45088734 53.44011861 50.21907858 54.70467546 48.11767578 57.53742981 C47.2357959 58.43233627 46.35391602 59.32724274 45.4453125 60.24926758 C44.96073074 60.74742981 44.47614899 61.24559204 43.97688293 61.7588501 C42.37240537 63.40060246 40.74997915 65.02308548 39.125 66.64453125 C38.00021516 67.78030564 36.8759549 68.91659976 35.75219727 70.0533905 C33.39330427 72.43319348 31.02482558 74.80294681 28.64990234 77.16674805 C25.61236176 80.19260774 22.6054459 83.24699325 19.60577393 86.31033802 C17.29128303 88.66548019 14.95857229 91.00189894 12.62030029 93.33341026 C11.50406177 94.45185148 10.39413749 95.57663252 9.29083252 96.70783424 C7.74229625 98.29098117 6.17025034 99.84645858 4.58984375 101.39770508 C3.70159912 102.28863358 2.81335449 103.17956207 1.89819336 104.0974884 C-1.3878372 106.25459474 -3.2328355 106.67533909 -7.08664131 106.42864132 C-10.32168308 105.70390916 -12.00950001 103.95515359 -14.29858398 101.62548828 C-14.76631729 101.16052948 -15.2340506 100.69557068 -15.71595764 100.21652222 C-17.24587115 98.6861365 -18.74545225 97.12936639 -20.24609375 95.5703125 C-21.3067491 94.49726177 -22.3691198 93.42590411 -23.43312073 92.35617065 C-26.22100635 89.54348617 -28.98362208 86.70718283 -31.74200439 83.86560059 C-34.00210076 81.54537926 -36.27901468 79.24207558 -38.55709743 76.93953133 C-43.25799172 72.18804821 -47.94785323 67.42557518 -52.60717773 62.63330078 C-53.43354233 61.78502716 -54.25990692 60.93675354 -55.11131287 60.06277466 C-57.73570859 57.19647833 -58.22650919 55.6240736 -58.0625 51.8125 C-57.56534067 47.7240187 -56.44785501 46.01372435 -53.3125 43.375 C-52.58675781 42.81554688 -51.86101562 42.25609375 -51.11328125 41.6796875 C-49.10096815 40.08025195 -47.60823783 38.49368326 -46 36.5 C-43.25761188 33.15981611 -40.15935644 30.47457664 -36.87109375 27.68359375 C-34.7847351 25.88693102 -34.7847351 25.88693102 -32.5 23 C-30.43318144 20.51981773 -28.50221023 18.63325594 -26.0625 16.5625 C-23.4379696 14.33115768 -21.12755951 12.09602144 -18.9375 9.4375 C-13.68114286 3.07529723 -8.7291988 -2.39625065 0 0 Z M-13 21 C-13.825 21.99 -14.65 22.98 -15.5 24 C-17.56681856 26.48018227 -19.49778977 28.36674406 -21.9375 30.4375 C-25.13368482 33.15575064 -27.77461008 36.00676529 -30.4296875 39.2421875 C-32.75042552 41.84002856 -35.38490385 44.01568389 -38.0703125 46.2265625 C-40.51288619 48.38104457 -40.51288619 48.38104457 -44 53 C-31.13 65.87 -18.26 78.74 -5 92 C-0.37502598 89.28984098 -0.37502598 89.28984098 2.875 85.6875 C4.90904132 83.20087148 6.95210012 81.0975254 9.4375 79.0625 C12.07375903 76.88975904 14.29000226 74.60552306 16.5 72 C19.20978674 68.80524025 22.06434514 66.16571704 25.296875 63.515625 C27.71361937 61.36494423 29.71196967 58.93281572 31.73828125 56.41796875 C33 55 33 55 35 54 C35 53.34 35 52.68 35 52 C33.64138819 50.66213638 33.64138819 50.66213638 31.875 49.3125 C29.33284884 47.21356958 27.14860266 45.11409665 25.0625 42.5625 C22.88975904 39.92624097 20.60552306 37.70999774 18 35.5 C14.80048254 32.78617779 12.1604099 29.92293675 9.5 26.69140625 C7.42291152 24.34927262 5.08658611 22.4103881 2.67578125 20.421875 C1.06902013 19.05856254 -0.40490392 17.63322537 -1.875 16.125 C-2.57625 15.42375 -3.2775 14.7225 -4 14 C-7.0144244 14 -10.90138076 19.02153072 -13 21 Z " fill="#EBEBEB" transform="translate(131,9)"/>
<path d="M0 0 C4.48228126 3.08156836 7.70319664 6.89759252 11.2109375 11.0234375 C13.3986909 13.4404751 15.80290668 15.43824625 18.31640625 17.50390625 C20.62959164 19.55947471 22.50398197 21.89844622 24.46875 24.28125 C26.03710099 26.04164397 27.68228889 27.50118557 29.5 29 C32.51756976 31.48932998 34.91407585 34.1912335 37.390625 37.20703125 C39.18891077 39.21046127 41.12816057 40.8925995 43.1875 42.625 C46.14497419 45.1632154 48.53745474 47.29488534 50 51 C49.68451331 55.72294382 47.67385385 57.8497025 44.42358398 61.1574707 C43.71112267 61.89008369 43.71112267 61.89008369 42.98426819 62.63749695 C41.41537307 64.24429953 39.83189618 65.835674 38.24609375 67.42578125 C37.1453793 68.53935456 36.04496559 69.65322521 34.94483948 70.76737976 C32.63755647 73.09859445 30.3221722 75.42141011 28.00170898 77.73950195 C25.0342967 80.70650773 22.09535378 83.70006856 19.16281033 86.70148945 C16.89874988 89.01009543 14.61666729 91.30021862 12.32917976 93.58559227 C11.23791029 94.68157207 10.15309836 95.78402227 9.07507133 96.89303017 C-0.39139978 106.60576903 -0.39139978 106.60576903 -5.02734375 107.32446289 C-11.34577304 106.31038151 -16.00305741 99.9785088 -20.24609375 95.5703125 C-21.3067491 94.49726177 -22.3691198 93.42590411 -23.43312073 92.35617065 C-26.22100635 89.54348617 -28.98362208 86.70718283 -31.74200439 83.86560059 C-34.00210076 81.54537926 -36.27901468 79.24207558 -38.55709743 76.93953133 C-43.25799172 72.18804821 -47.94785323 67.42557518 -52.60717773 62.63330078 C-53.43354233 61.78502716 -54.25990692 60.93675354 -55.11131287 60.06277466 C-57.27063701 57.70441734 -57.90316943 56.5083605 -58.5 53.375 C-57.26684513 45.05120464 -46.93468926 37.7886279 -41.19921875 32.06640625 C-40.28163284 31.14786362 -39.36404694 30.22932098 -38.4186554 29.28294373 C-36.49320392 27.35603051 -34.56598693 25.43090625 -32.63745117 23.50708008 C-30.16480285 21.04017661 -27.69673681 18.56874464 -25.22993755 16.095994 C-22.86795286 13.72953879 -20.50217911 11.36688732 -18.13671875 9.00390625 C-17.25030197 8.11546524 -16.36388519 7.22702423 -15.4506073 6.31166077 C-14.63248062 5.49668625 -13.81435394 4.68171173 -12.97143555 3.84204102 C-11.8905793 2.76237816 -11.8905793 2.76237816 -10.78788757 1.66090393 C-7.16335701 -1.70619653 -4.71376174 -1.09987774 0 0 Z M-12 20 C-13.78989987 21.98702541 -15.51629052 24.01920605 -17.24609375 26.05859375 C-19.41955482 28.46440701 -21.81665055 30.44954132 -24.31640625 32.50390625 C-26.62826188 34.55829304 -28.50175214 36.89545926 -30.46484375 39.27734375 C-32.50598909 41.56778928 -34.7867587 43.45046429 -37.19140625 45.34765625 C-39.7120897 47.65057007 -41.81423597 50.37708317 -44 53 C-31.13 65.87 -18.26 78.74 -5 92 C-0.37502598 89.28984098 -0.37502598 89.28984098 2.875 85.6875 C4.90904132 83.20087148 6.95210012 81.0975254 9.4375 79.0625 C12.07375903 76.88975904 14.29000226 74.60552306 16.5 72 C19.20978674 68.80524025 22.06434514 66.16571704 25.296875 63.515625 C27.71361937 61.36494423 29.71196967 58.93281572 31.73828125 56.41796875 C33 55 33 55 35 54 C35 53.34 35 52.68 35 52 C33.41262601 50.43351142 33.41262601 50.43351142 31.375 48.8125 C28.64285119 46.49809626 26.20770582 44.20604369 23.9375 41.4375 C21.45208218 38.4132382 18.73191182 36.01578694 15.71875 33.53125 C13.95835603 31.96289901 12.49881443 30.31771111 11 28.5 C8.47340893 25.44114041 5.7315675 22.94239049 2.67578125 20.421875 C1.06902013 19.05856254 -0.40490392 17.63322537 -1.875 16.125 C-2.57625 15.42375 -3.2775 14.7225 -4 14 C-6.79933005 14 -10.07811245 18.19296629 -12 20 Z " fill="#EBEBEB" transform="translate(194,72)"/>
<path d="M0 0 C2.65058899 1.92233276 2.65058899 1.92233276 5.16918945 4.47216797 C5.63517044 4.9356665 6.10115143 5.39916504 6.58125305 5.87670898 C8.10671844 7.40126148 9.60977311 8.94600234 11.11328125 10.4921875 C12.17341152 11.56098025 13.23480827 12.62851815 14.29740906 13.69485474 C17.08361886 16.49825133 19.85092852 19.31962279 22.61505127 22.14477539 C24.87545902 24.44882914 27.14889515 26.73977849 29.42315388 29.03014946 C32.13665199 31.76325975 34.84464763 34.50178698 37.55078125 37.2421875 C38.32412528 38.02517023 38.32412528 38.02517023 39.11309242 38.82397079 C40.57092649 40.30281233 42.02503434 41.78520754 43.4777832 43.26904297 C44.30494339 44.11207977 45.13210358 44.95511658 45.98432922 45.82369995 C50.03038867 50.19219082 50.03038867 50.19219082 49.911026 53.36515808 C48.72397017 56.79832514 46.96870889 58.56732171 44.42358398 61.1574707 C43.71112267 61.89008369 43.71112267 61.89008369 42.98426819 62.63749695 C41.41537307 64.24429953 39.83189618 65.835674 38.24609375 67.42578125 C37.1453793 68.53935456 36.04496559 69.65322521 34.94483948 70.76737976 C32.63755647 73.09859445 30.3221722 75.42141011 28.00170898 77.73950195 C25.0342967 80.70650773 22.09535378 83.70006856 19.16281033 86.70148945 C16.89874988 89.01009543 14.61666729 91.30021862 12.32917976 93.58559227 C11.23791029 94.68157207 10.15309836 95.78402227 9.07507133 96.89303017 C-0.39106291 106.60542339 -0.39106291 106.60542339 -5.01147461 107.32714844 C-11.38629514 106.30280496 -16.17173005 99.94454209 -20.5 95.52734375 C-21.58591875 94.44427689 -22.67309789 93.36247241 -23.76147461 92.28187561 C-26.03360317 90.01701425 -28.29094576 87.73863287 -30.53857422 85.44946289 C-33.41632089 82.52050787 -36.32637275 79.6263693 -39.24807739 76.74133968 C-41.49669756 74.51415808 -43.7280885 72.27033374 -45.95458984 70.02105904 C-47.02128089 68.94719984 -48.09303256 67.8783425 -49.16992188 66.81471062 C-50.67399442 65.32375478 -52.15357824 63.8120596 -53.62890625 62.29272461 C-54.47525635 61.43778915 -55.32160645 60.5828537 -56.19360352 59.70201111 C-58.50190477 56.24924994 -58.39764103 54.07561394 -58 50 C-56.88457668 46.83416618 -55.366556 45.23242102 -52.75 43.1875 C-50.24489191 41.13176182 -48.11455554 39.0699432 -46.0625 36.5625 C-43.3143148 33.22803529 -40.22995255 30.54324249 -36.94140625 27.75390625 C-34.53559299 25.58044518 -32.55045868 23.18334945 -30.49609375 20.68359375 C-28.44052529 18.37040836 -26.10155378 16.49601803 -23.71875 14.53125 C-21.95835603 12.96289901 -20.49881443 11.31771111 -19 9.5 C-13.46992262 2.81039027 -8.9841114 -2.04558249 0 0 Z M-9.0625 17.375 C-10.16271484 18.31472656 -10.16271484 18.31472656 -11.28515625 19.2734375 C-13.23489828 20.83092754 -13.23489828 20.83092754 -13 23 C-13.556875 23.226875 -14.11375 23.45375 -14.6875 23.6875 C-17.66159588 25.37550036 -19.72008865 27.46676517 -22 30 C-22 30.66 -22 31.32 -22 32 C-22.556875 32.226875 -23.11375 32.45375 -23.6875 32.6875 C-26.66159588 34.37550036 -28.72008865 36.46676517 -31 39 C-31 39.66 -31 40.32 -31 41 C-31.556875 41.226875 -32.11375 41.45375 -32.6875 41.6875 C-35.66159588 43.37550036 -37.72008865 45.46676517 -40 48 C-40 48.66 -40 49.32 -40 50 C-41.32 50.66 -42.64 51.32 -44 52 C-39.62970634 57.22948744 -35.03088196 62.10289955 -30.1953125 66.90234375 C-29.4713327 67.6249086 -28.74735291 68.34747345 -28.00143433 69.0919342 C-25.71164735 71.37616922 -23.41839007 73.65688312 -21.125 75.9375 C-19.56226839 77.49521039 -17.9997661 79.05315087 -16.4375 80.61132812 C-12.6276469 84.41021602 -8.81494621 88.20622713 -5 92 C-1.54188495 89.99594151 0.91420171 88.23525257 3.4375 85.125 C6.36059788 81.65263751 9.50910416 78.90907987 13 76 C14.16538421 74.70482822 15.31005353 73.3908278 16.4375 72.0625 C19.17018315 68.84828678 22.04167239 66.18430462 25.296875 63.515625 C27.71361937 61.36494423 29.71196967 58.93281572 31.73828125 56.41796875 C33 55 33 55 35 54 C35 53.34 35 52.68 35 52 C33.37907408 50.39940707 33.37907408 50.39940707 31.3125 48.75 C27.78124732 45.75678407 24.96617204 42.55940644 22 39 C20.70482822 37.83461579 19.3908278 36.68994647 18.0625 35.5625 C15.46017225 33.34930537 13.16734672 31.13979287 11 28.5 C8.23907165 25.14313356 5.14041183 22.38676932 1.83203125 19.578125 C-0.21467315 17.81507899 -2.09081388 15.90918612 -4 14 C-5.99954352 14 -7.6390322 16.14484265 -9.0625 17.375 Z " fill="#ECECEC" transform="translate(68,72)"/>
<path d="M0 0 C2.65058899 1.92233276 2.65058899 1.92233276 5.16918945 4.47216797 C5.63517044 4.9356665 6.10115143 5.39916504 6.58125305 5.87670898 C8.10671844 7.40126148 9.60977311 8.94600234 11.11328125 10.4921875 C12.17341152 11.56098025 13.23480827 12.62851815 14.29740906 13.69485474 C17.08361886 16.49825133 19.85092852 19.31962279 22.61505127 22.14477539 C24.87545902 24.44882914 27.14889515 26.73977849 29.42315388 29.03014946 C32.13665199 31.76325975 34.84464763 34.50178698 37.55078125 37.2421875 C38.32412528 38.02517023 38.32412528 38.02517023 39.11309242 38.82397079 C40.57092649 40.30281233 42.02503434 41.78520754 43.4777832 43.26904297 C44.30494339 44.11207977 45.13210358 44.95511658 45.98432922 45.82369995 C50.03038867 50.19219082 50.03038867 50.19219082 49.911026 53.36515808 C48.72397017 56.79832514 46.96870889 58.56732171 44.42358398 61.1574707 C43.71112267 61.89008369 43.71112267 61.89008369 42.98426819 62.63749695 C41.41537307 64.24429953 39.83189618 65.835674 38.24609375 67.42578125 C37.1453793 68.53935456 36.04496559 69.65322521 34.94483948 70.76737976 C32.63755647 73.09859445 30.3221722 75.42141011 28.00170898 77.73950195 C25.0342967 80.70650773 22.09535378 83.70006856 19.16281033 86.70148945 C16.89874988 89.01009543 14.61666729 91.30021862 12.32917976 93.58559227 C11.23791029 94.68157207 10.15309836 95.78402227 9.07507133 96.89303017 C-0.39106291 106.60542339 -0.39106291 106.60542339 -5.01147461 107.32714844 C-11.38629514 106.30280496 -16.17173005 99.94454209 -20.5 95.52734375 C-21.58591875 94.44427689 -22.67309789 93.36247241 -23.76147461 92.28187561 C-26.03360317 90.01701425 -28.29094576 87.73863287 -30.53857422 85.44946289 C-33.41632089 82.52050787 -36.32637275 79.6263693 -39.24807739 76.74133968 C-41.49669756 74.51415808 -43.7280885 72.27033374 -45.95458984 70.02105904 C-47.02128089 68.94719984 -48.09303256 67.8783425 -49.16992188 66.81471062 C-50.67399442 65.32375478 -52.15357824 63.8120596 -53.62890625 62.29272461 C-54.47525635 61.43778915 -55.32160645 60.5828537 -56.19360352 59.70201111 C-58.50295519 56.24767872 -58.41641735 54.07717521 -58 50 C-55.40486251 44.4951629 -50.4664122 40.4375555 -45.8828125 36.5859375 C-42.46284634 33.70521912 -39.48765655 30.60627572 -36.6875 27.125 C-34.12148671 23.97616981 -31.16567278 21.41751119 -28.0625 18.80859375 C-25.59253272 16.64269442 -23.3058661 14.34002708 -21 12 C-18.93975119 9.91442856 -16.87649955 7.83185863 -14.8125 5.75 C-14.01295898 4.93789062 -14.01295898 4.93789062 -13.19726562 4.109375 C-8.42608077 -0.69181731 -6.75012704 -1.53692904 0 0 Z M-12 20 C-12.9994201 21.12821135 -13.97935158 22.27403406 -14.9375 23.4375 C-17.6856852 26.77196471 -20.77004745 29.45675751 -24.05859375 32.24609375 C-26.46082394 34.41631781 -28.44327013 36.80997541 -30.49609375 39.3046875 C-33.05056393 42.18427207 -36.04195985 44.54925659 -39 47 C-41.4633099 48.95716757 -41.4633099 48.95716757 -43 51 C-42.63954934 54.61951683 -41.0169716 56.34930269 -38.48999023 58.85058594 C-37.74929794 59.59105164 -37.00860565 60.33151733 -36.24546814 61.09442139 C-35.44129959 61.88310608 -34.63713104 62.67179077 -33.80859375 63.484375 C-32.98875504 64.29996887 -32.16891632 65.11556274 -31.32423401 65.95587158 C-28.70227238 68.56103106 -26.07007552 71.15557079 -23.4375 73.75 C-21.65882155 75.51363369 -19.88081808 77.2779484 -18.10351562 79.04296875 C-13.7434806 83.36991403 -9.37499473 87.68818398 -5 92 C-1.80815241 90.14138605 0.602643 88.61198313 2.875 85.6875 C4.90904132 83.20087148 6.95210012 81.0975254 9.4375 79.0625 C12.07375903 76.88975904 14.29000226 74.60552306 16.5 72 C19.20978674 68.80524025 22.06434514 66.16571704 25.296875 63.515625 C27.71361937 61.36494423 29.71196967 58.93281572 31.73828125 56.41796875 C33 55 33 55 35 54 C35 53.34 35 52.68 35 52 C33.37907408 50.39940707 33.37907408 50.39940707 31.3125 48.75 C27.78124732 45.75678407 24.96617204 42.55940644 22 39 C20.70482822 37.83461579 19.3908278 36.68994647 18.0625 35.5625 C15.46017225 33.34930537 13.16734672 31.13979287 11 28.5 C8.23907165 25.14313356 5.14041183 22.38676932 1.83203125 19.578125 C-0.21467315 17.81507899 -2.09081388 15.90918612 -4 14 C-6.79176434 14 -10.07202749 18.19152992 -12 20 Z " fill="#ECECEC" transform="translate(131,135)"/>
<path d="M0 0 C0 0.66 0 1.32 0 2 C0.8353125 2.3403125 0.8353125 2.3403125 1.6875 2.6875 C4.66159588 4.37550036 6.72008865 6.46676517 9 9 C9 9.66 9 10.32 9 11 C9.556875 11.226875 10.11375 11.45375 10.6875 11.6875 C13.66159588 13.37550036 15.72008865 15.46676517 18 18 C18 18.66 18 19.32 18 20 C18.598125 20.268125 19.19625 20.53625 19.8125 20.8125 C22.14126747 22.07668805 23.49243283 22.8140276 25 25 C25.55953046 29.44467355 25.44172619 31.38275996 22.80029297 35.07373047 C21.79972292 36.10676139 20.77899066 37.12052682 19.7421875 38.1171875 C19.20151642 38.65981232 18.66084534 39.20243713 18.10379028 39.76150513 C16.9603931 40.90091455 15.80837747 42.03173275 14.6484375 43.15429688 C12.88023963 44.86991617 11.1462652 46.61531186 9.4140625 48.3671875 C8.29616398 49.47327082 7.1764302 50.57750298 6.0546875 51.6796875 C5.53881073 52.19941132 5.02293396 52.71913513 4.49142456 53.25460815 C1.14326582 56.45401977 -1.32642122 57.9293236 -6 58 C-10.24735104 55.16843264 -13.20073555 51.66203509 -16.43359375 47.75390625 C-18.01585764 45.98224419 -19.66847843 44.5094958 -21.5 43 C-31.2520783 34.79000981 -31.2520783 34.79000981 -31.8125 29.0625 C-31.3219365 23.02389688 -26.53354683 19.21615744 -22.22265625 15.4453125 C-21.07511756 14.48252494 -19.92275228 13.52546077 -18.765625 12.57421875 C-16.11491336 10.21086301 -13.86578327 7.5419442 -11.578125 4.83203125 C-11.05734375 4.22746094 -10.5365625 3.62289062 -10 3 C-9.51402344 2.43023437 -9.02804688 1.86046875 -8.52734375 1.2734375 C-5.96875997 -0.85980626 -3.18030293 -0.18001715 0 0 Z M-12 23 C-13.5547669 26.10953379 -13.28644437 28.56266761 -13 32 C-11.60845604 35.46255794 -11.60845604 35.46255794 -9 38 C-5.17071355 39.02570173 -1.71764701 39.59327729 2 38 C5.31005803 35.30291568 5.90487716 32.85610555 6.375 28.625 C5.90483407 24.08006265 4.44437428 22.85631038 1 20 C0.67 19.67 0.34 19.34 0 19 C-5.49320625 18.47180709 -8.07680599 19.07680599 -12 23 Z " fill="#EFEFEF" transform="translate(67,96)"/>
<path d="M0 0 C2.7734375 1.8984375 2.7734375 1.8984375 5.375 4.375 C6.68597656 5.59316406 6.68597656 5.59316406 8.0234375 6.8359375 C10 9 10 9 10 11 C10.556875 11.226875 11.11375 11.45375 11.6875 11.6875 C14.66159588 13.37550036 16.72008865 15.46676517 19 18 C19 18.66 19 19.32 19 20 C19.598125 20.268125 20.19625 20.53625 20.8125 20.8125 C23.14126747 22.07668805 24.49243283 22.8140276 26 25 C26.58937076 29.52779869 26.40627212 31.42918789 23.72436523 35.19726562 C22.68851492 36.28573126 21.63185044 37.3546496 20.55859375 38.40625 C19.9980983 38.97581421 19.43760284 39.54537842 18.86012268 40.13220215 C17.67414907 41.32729334 16.47924193 42.51357719 15.27612305 43.69140625 C13.44075564 45.49679753 11.64893609 47.33870257 9.85742188 49.1875 C8.69772302 50.34616769 7.53568725 51.50250209 6.37109375 52.65625 C5.83850449 53.20817017 5.30591522 53.76009033 4.75718689 54.32873535 C1.79624008 57.1644732 0.41485237 58.00021631 -3.74584961 57.99804688 C-7.2870352 56.9119664 -8.48294823 55.69064865 -10.625 52.73828125 C-12.21482404 50.72841847 -13.97534366 49.2087789 -15.9375 47.5625 C-19.20187549 44.7837849 -21.9844077 41.87547192 -24.6796875 38.546875 C-26.06899854 36.82571058 -26.06899854 36.82571058 -28.375 35.0625 C-30.3935283 32.50052177 -30.74684113 30.39019745 -30.578125 27.1484375 C-28.88324551 20.84989884 -22.53356487 16.48515876 -17.6953125 12.50390625 C-14.04752699 9.26796749 -11.08614145 5.32373489 -8 1.5625 C-5.17179004 -0.64703903 -3.52966038 -0.40792912 0 0 Z M-11 23 C-12.85360302 25.64284429 -12.85360302 25.64284429 -13 29 C-11.96421275 32.56310814 -10.54672412 35.28951757 -8 38 C-4.89516404 39.34263176 -2.32919618 39.51357836 1 39 C4.84181881 37.03822018 5.77514427 35.53769848 7.4375 31.5625 C8.04713227 27.70149562 8.04137929 26.28395799 6 23 C3.16644979 20.00453264 1.60872798 19.08696114 -2.5 18.5 C-6.63448724 19.09064103 -8.18378155 19.9423914 -11 23 Z " fill="#EEEEEE" transform="translate(129,159)"/>
<path d="M0 0 C0 0.66 0 1.32 0 2 C0.55719727 2.23630127 1.11439453 2.47260254 1.68847656 2.71606445 C6.18723034 5.21489696 9.63532678 9.14441847 13.27392578 12.73852539 C14.74410479 14.18171302 16.23648434 15.59910462 17.73046875 17.01757812 C18.65988281 17.93345703 19.58929688 18.84933594 20.546875 19.79296875 C21.40120117 20.6233667 22.25552734 21.45376465 23.13574219 22.30932617 C25.61167776 25.8828314 25.72832416 27.73171572 25 32 C23.29937448 34.37634576 21.81289858 36.12664929 19.7421875 38.1171875 C19.20151642 38.65981232 18.66084534 39.20243713 18.10379028 39.76150513 C16.9603931 40.90091455 15.80837747 42.03173275 14.6484375 43.15429688 C12.88023963 44.86991617 11.1462652 46.61531186 9.4140625 48.3671875 C8.29616398 49.47327082 7.1764302 50.57750298 6.0546875 51.6796875 C5.53881073 52.19941132 5.02293396 52.71913513 4.49142456 53.25460815 C1.14326582 56.45401977 -1.32642122 57.9293236 -6 58 C-10.24735104 55.16843264 -13.20073555 51.66203509 -16.43359375 47.75390625 C-18.01585764 45.98224419 -19.66847843 44.5094958 -21.5 43 C-31.2520783 34.79000981 -31.2520783 34.79000981 -31.8125 29.0625 C-31.3204612 23.00573673 -26.50403646 19.19642853 -22.1875 15.41015625 C-21.02875523 14.43505183 -19.86473021 13.46618495 -18.6953125 12.50390625 C-15.05888424 9.27804247 -12.08041139 5.35922723 -9.0625 1.5625 C-6.07794184 -0.69852891 -3.63074202 -0.27928785 0 0 Z M-12 23 C-12.99370556 25.73123751 -13.29478004 28.10781851 -13 31 C-11.03190926 34.79560358 -9.5566917 36.6288722 -6 39 C-0.37343088 38.82872013 -0.37343088 38.82872013 4.4375 36.25 C6.27338511 33.60632544 6.92489366 32.22957251 7 29 C5.84718323 25.48087511 4.74121936 22.82063572 2.25 20.0625 C-3.29191733 17.44548348 -8.07343051 18.38050648 -12 23 Z " fill="#F0F0F0" transform="translate(193,96)"/>
<path d="M0 0 C0 0.66 0 1.32 0 2 C0.8353125 2.3403125 0.8353125 2.3403125 1.6875 2.6875 C4.66159588 4.37550036 6.72008865 6.46676517 9 9 C9 9.66 9 10.32 9 11 C9.556875 11.226875 10.11375 11.45375 10.6875 11.6875 C13.66159588 13.37550036 15.72008865 15.46676517 18 18 C18 18.66 18 19.32 18 20 C18.598125 20.268125 19.19625 20.53625 19.8125 20.8125 C22.14126747 22.07668805 23.49243283 22.8140276 25 25 C25.53974949 29.38492879 25.47745501 31.3430059 22.84448242 34.96606445 C21.86613295 35.95002237 20.86850424 36.91507243 19.85546875 37.86328125 C19.32987869 38.38133835 18.80428864 38.89939545 18.26277161 39.43315125 C16.58677511 41.07673704 14.88779325 42.69410216 13.1875 44.3125 C12.05509824 45.41834465 10.92422081 46.52575252 9.79492188 47.63476562 C1.70189919 55.5320672 1.70189919 55.5320672 -2 58 C-6.44528268 57.76603775 -8.79306779 55.97227863 -12 53 C-13.4941842 51.28522593 -14.94607117 49.53935013 -16.3984375 47.7890625 C-17.99455474 46.00608275 -19.65467699 44.52015596 -21.5 43 C-31.2520783 34.79000981 -31.2520783 34.79000981 -31.8125 29.0625 C-31.3204612 23.00573673 -26.50403646 19.19642853 -22.1875 15.41015625 C-21.02875523 14.43505183 -19.86473021 13.46618495 -18.6953125 12.50390625 C-15.05888424 9.27804247 -12.08041139 5.35922723 -9.0625 1.5625 C-6.07794184 -0.69852891 -3.63074202 -0.27928785 0 0 Z M-12 23 C-13.75 25.75 -13.75 25.75 -14 29 C-12.94561261 31.63331926 -11.61226893 33.62901627 -10 36 C-9.34 36 -8.68 36 -8 36 C-8 36.66 -8 37.32 -8 38 C-2.37440054 39.26498076 -2.37440054 39.26498076 2.875 37.5 C5.53324676 34.37265088 6.36120288 32.0457151 7 28 C6.47458333 25.13930698 6.47458333 25.13930698 5 23 C4.01 22.67 3.02 22.34 2 22 C1.67 21.01 1.34 20.02 1 19 C-4.75129034 18.61008201 -7.92665129 18.4474338 -12 23 Z " fill="#EFEFEF" transform="translate(130,33)"/>
</svg>
